<svg width="24" height="24" viewBox="0 0 24 24" fill="none" xmlns="http://www.w3.org/2000/svg">
<path d="M13.8537 10.1476C14.8789 11.2038 15.4454 12.6221 15.43 14.0939C15.4146 15.5658 14.8185 16.9719 13.7714 18.0064L9.43739 22.3268C8.91263 22.8553 8.28879 23.2751 7.60159 23.5622C6.91438 23.8493 6.1773 23.9981 5.43253 24C3.9905 24.0012 2.60598 23.4346 1.57853 22.4228C1.06419 21.9095 0.659246 21.2972 0.388154 20.623C0.117062 19.9488 -0.0145478 19.2267 0.0012748 18.5002C0.0260809 17.0205 0.626257 15.6086 1.67454 14.5639L5.99486 10.2299C6.18773 10.0372 6.44917 9.92904 6.72177 9.92904C6.99436 9.92904 7.25581 10.0372 7.44868 10.2299C7.54572 10.3244 7.62285 10.4375 7.67551 10.5623C7.72818 10.6872 7.75531 10.8213 7.75531 10.9568C7.75531 11.0923 7.72818 11.2264 7.67551 11.3512C7.62285 11.4761 7.54572 11.5891 7.44868 11.6837L3.12836 16.0177C2.4569 16.682 2.0728 17.5832 2.05857 18.5276C2.0485 18.9791 2.12955 19.428 2.29686 19.8474C2.46417 20.2669 2.71432 20.6483 3.03235 20.9689C3.70451 21.6071 4.60098 21.9549 5.52766 21.9369C6.45435 21.9189 7.33666 21.5367 7.98357 20.8729L12.3176 16.5389C12.9819 15.8943 13.3636 15.0127 13.379 14.0872C13.3945 13.1616 13.0424 12.2678 12.3999 11.6014C12.2073 11.4085 12.0991 11.1471 12.0991 10.8745C12.0991 10.6019 12.2073 10.3404 12.3999 10.1476C12.4945 10.0505 12.6075 9.9734 12.7323 9.92074C12.8572 9.86807 12.9913 9.84094 13.1268 9.84094C13.2623 9.84094 13.3964 9.86807 13.5213 9.92074C13.6461 9.9734 13.7592 10.0505 13.8537 10.1476ZM22.4258 1.57552C21.3695 0.548791 19.9495 -0.017578 18.4765 0.000416013C17.0036 0.01841 15.5978 0.619301 14.5669 1.67153L10.2329 5.99184C9.18581 7.02633 8.5897 8.43251 8.57429 9.90434C8.55888 11.3762 9.12541 12.7945 10.1506 13.8507C10.2451 13.9475 10.3582 14.0241 10.4832 14.076C10.6081 14.1279 10.7422 14.1539 10.8775 14.1524C11.0126 14.1531 11.1466 14.1267 11.2714 14.0749C11.3962 14.0231 11.5094 13.9469 11.6044 13.8507C11.797 13.6578 11.9052 13.3964 11.9052 13.1238C11.9052 12.8512 11.797 12.5898 11.6044 12.3969C10.9619 11.7305 10.6098 10.8366 10.6253 9.91113C10.6407 8.98562 11.0224 8.10396 11.6867 7.45938L16.0207 3.12535C16.6676 2.4616 17.55 2.07935 18.4766 2.06139C19.4033 2.04342 20.2998 2.39117 20.972 3.02934C21.29 3.34995 21.5401 3.73138 21.7074 4.15084C21.8748 4.5703 21.9558 5.01918 21.9457 5.47066C21.9315 6.41509 21.5474 7.31626 20.8759 7.98056L16.5556 12.3146C16.4586 12.4092 16.3815 12.5222 16.3288 12.647C16.2761 12.7719 16.249 12.906 16.249 13.0415C16.249 13.177 16.2761 13.3111 16.3288 13.436C16.3815 13.5608 16.4586 13.6739 16.5556 13.7684C16.7485 13.961 17.0099 14.0692 17.2825 14.0692C17.5551 14.0692 17.8166 13.961 18.0094 13.7684L22.3298 9.43438C23.378 8.38972 23.9782 6.97783 24.003 5.49809C24.0189 4.77161 23.8872 4.04946 23.6161 3.37526C23.3451 2.70107 22.9401 2.08883 22.4258 1.57552Z" fill="white"/>
</svg>
