<svg width="56" height="56" viewBox="0 0 56 56" fill="none" xmlns="http://www.w3.org/2000/svg">
<rect width="56" height="56" rx="28" fill="url(#paint0_linear_5354_1106)" fill-opacity="0.6"/>
<path d="M29.8518 26.1475C30.8769 27.2037 31.4435 28.6221 31.4281 30.0939C31.4127 31.5657 30.8165 32.9719 29.7695 34.0064L25.4354 38.3267C24.9107 38.8552 24.2868 39.275 23.5996 39.5622C22.9124 39.8493 22.1753 39.9981 21.4306 40C19.9885 40.0012 18.604 39.4346 17.5766 38.4227C17.0622 37.9094 16.6573 37.2972 16.3862 36.623C16.1151 35.9488 15.9835 35.2266 15.9993 34.5002C16.0241 33.0204 16.6243 31.6085 17.6726 30.5639L21.9929 26.2298C22.1858 26.0372 22.4472 25.929 22.7198 25.929C22.9924 25.929 23.2539 26.0372 23.4467 26.2298C23.5438 26.3244 23.6209 26.4374 23.6736 26.5623C23.7262 26.6871 23.7534 26.8212 23.7534 26.9567C23.7534 27.0922 23.7262 27.2264 23.6736 27.3512C23.6209 27.4761 23.5438 27.5891 23.4467 27.6837L19.1264 32.0177C18.455 32.682 18.0708 33.5832 18.0566 34.5276C18.0466 34.9791 18.1276 35.4279 18.2949 35.8474C18.4622 36.2669 18.7124 36.6483 19.0304 36.9689C19.7026 37.6071 20.599 37.9548 21.5257 37.9369C22.4524 37.9189 23.3347 37.5367 23.9816 36.8729L28.3157 32.5389C28.98 31.8943 29.3617 31.0126 29.3771 30.0871C29.3925 29.1616 29.0404 28.2677 28.3979 27.6014C28.2053 27.4085 28.0971 27.147 28.0971 26.8745C28.0971 26.6019 28.2053 26.3404 28.3979 26.1475C28.4925 26.0505 28.6055 25.9734 28.7304 25.9207C28.8552 25.868 28.9894 25.8409 29.1249 25.8409C29.2604 25.8409 29.3945 25.868 29.5193 25.9207C29.6442 25.9734 29.7572 26.0505 29.8518 26.1475ZM38.4238 17.5755C37.3676 16.5488 35.9475 15.9824 34.4746 16.0004C33.0016 16.0184 31.5958 16.6193 30.565 17.6715L26.2309 21.9918C25.1839 23.0263 24.5877 24.4325 24.5723 25.9043C24.5569 27.3761 25.1235 28.7945 26.1486 29.8507C26.2431 29.9475 26.3563 30.0241 26.4812 30.076C26.6061 30.1278 26.7403 30.1538 26.8755 30.1524C27.0107 30.153 27.1446 30.1267 27.2694 30.0749C27.3943 30.0231 27.5075 29.9468 27.6025 29.8507C27.7951 29.6578 27.9033 29.3964 27.9033 29.1238C27.9033 28.8512 27.7951 28.5897 27.6025 28.3969C26.96 27.7305 26.6079 26.8366 26.6233 25.9111C26.6387 24.9856 27.0204 24.1039 27.6847 23.4593L32.0188 19.1253C32.6657 18.4616 33.548 18.0793 34.4747 18.0614C35.4014 18.0434 36.2978 18.3911 36.97 19.0293C37.288 19.3499 37.5382 19.7314 37.7055 20.1508C37.8728 20.5703 37.9538 21.0191 37.9438 21.4706C37.9296 22.4151 37.5454 23.3162 36.874 23.9805L32.5537 28.3146C32.4566 28.4091 32.3795 28.5222 32.3268 28.647C32.2742 28.7718 32.247 28.906 32.247 29.0415C32.247 29.177 32.2742 29.3111 32.3268 29.4359C32.3795 29.5608 32.4566 29.6738 32.5537 29.7684C32.7465 29.961 33.008 30.0692 33.2806 30.0692C33.5532 30.0692 33.8146 29.961 34.0075 29.7684L38.3278 25.4344C39.3761 24.3897 39.9763 22.9778 40.0011 21.4981C40.0169 20.7716 39.8853 20.0494 39.6142 19.3752C39.3431 18.701 38.9382 18.0888 38.4238 17.5755Z" fill="white"/>
<defs>
<linearGradient id="paint0_linear_5354_1106" x1="6.15385" y1="3.57447" x2="59.8036" y2="21.0433" gradientUnits="userSpaceOnUse">
<stop stop-color="white" stop-opacity="0.8"/>
<stop offset="1" stop-color="white" stop-opacity="0.38"/>
</linearGradient>
</defs>
</svg>
